<svg width="125" height="101" viewBox="0 0 125 101" fill="none" xmlns="http://www.w3.org/2000/svg">
<path d="M7.1725 5H28.7233L47.0045 49.5781H47.8483L66.1295 5H87.6803V77H70.735V32.7734H70.1373L52.8405 76.543H42.0123L24.7155 32.5273H24.1178V77H7.1725V5ZM70.8148 77V5H119.963V19.1328H88.2171V33.8984H116.834V48.0664H88.2171V77H70.8148Z" fill="white"/>
<path d="M10.0625 95H7.14489V85.5455H10.1918C11.1089 85.5455 11.8937 85.7347 12.5462 86.1133C13.1986 86.4888 13.6987 87.0289 14.0465 87.7337C14.3943 88.4354 14.5682 89.2756 14.5682 90.2543C14.5682 91.2391 14.3928 92.087 14.0419 92.7979C13.6911 93.5058 13.1802 94.0505 12.5092 94.4322C11.8383 94.8107 11.0227 95 10.0625 95ZM8.28977 93.9844H9.98864C10.7704 93.9844 11.4182 93.8336 11.9322 93.532C12.4461 93.2304 12.8293 92.801 13.0817 92.244C13.334 91.6869 13.4602 91.0237 13.4602 90.2543C13.4602 89.491 13.3356 88.8339 13.0863 88.283C12.837 87.729 12.4646 87.3043 11.9691 87.0089C11.4736 86.7103 10.8565 86.5611 10.1179 86.5611H8.28977V93.9844ZM18.4135 85.5455V95H17.2686V85.5455H18.4135ZM27.9521 88.5C27.8506 88.1892 27.7167 87.9106 27.5505 87.6644C27.3874 87.4151 27.192 87.2028 26.9642 87.0273C26.7395 86.8519 26.4841 86.718 26.1979 86.6257C25.9117 86.5334 25.5977 86.4872 25.2561 86.4872C24.696 86.4872 24.1866 86.6319 23.7281 86.9212C23.2695 87.2105 22.9048 87.6367 22.634 88.1999C22.3631 88.7631 22.2277 89.4541 22.2277 90.2727C22.2277 91.0914 22.3647 91.7823 22.6386 92.3455C22.9125 92.9087 23.2833 93.335 23.7511 93.6243C24.2189 93.9136 24.7452 94.0582 25.33 94.0582C25.8716 94.0582 26.3487 93.9428 26.7611 93.712C27.1766 93.4781 27.4997 93.1488 27.7305 92.7241C27.9644 92.2963 28.0814 91.7931 28.0814 91.2145L28.4322 91.2884H25.5885V90.2727H29.1893V91.2884C29.1893 92.067 29.0232 92.7441 28.6908 93.3196C28.3615 93.8951 27.906 94.3414 27.3243 94.6584C26.7457 94.9723 26.0809 95.1293 25.33 95.1293C24.4929 95.1293 23.7573 94.9323 23.1233 94.5384C22.4924 94.1444 22 93.5843 21.646 92.858C21.2952 92.1316 21.1197 91.2699 21.1197 90.2727C21.1197 89.5249 21.2198 88.8524 21.4198 88.2553C21.6229 87.6552 21.9092 87.1443 22.2785 86.7227C22.6478 86.301 23.0848 85.9779 23.5896 85.7532C24.0943 85.5285 24.6498 85.4162 25.2561 85.4162C25.7547 85.4162 26.2194 85.4916 26.6503 85.6424C27.0842 85.7901 27.4705 86.0009 27.809 86.2749C28.1506 86.5457 28.4353 86.8704 28.6631 87.2489C28.8908 87.6244 29.0478 88.0414 29.134 88.5H27.9521ZM33.0751 85.5455V95H31.9302V85.5455H33.0751ZM35.6336 86.5611V85.5455H42.7245V86.5611H39.7515V95H38.6066V86.5611H35.6336ZM44.5547 95H43.3545L46.826 85.5455H48.0079L51.4795 95H50.2792L47.4539 87.0412H47.38L44.5547 95ZM44.9979 91.3068H49.836V92.3224H44.9979V91.3068ZM53.7321 95V85.5455H54.877V93.9844H59.2719V95H53.7321ZM71.4313 87.9091C71.3759 87.4413 71.1512 87.0781 70.7573 86.8196C70.3634 86.5611 69.8802 86.4318 69.3077 86.4318C68.8892 86.4318 68.5229 86.4995 68.209 86.6349C67.8982 86.7704 67.655 86.9566 67.4796 87.1935C67.3073 87.4305 67.2211 87.6998 67.2211 88.0014C67.2211 88.2538 67.2811 88.4708 67.4011 88.6523C67.5242 88.8308 67.6812 88.9801 67.872 89.1001C68.0628 89.2171 68.2629 89.314 68.4722 89.391C68.6814 89.4648 68.8738 89.5249 69.0492 89.571L70.0094 89.8295C70.2557 89.8942 70.5296 89.9834 70.8312 90.0973C71.1359 90.2112 71.4267 90.3666 71.7037 90.5636C71.9838 90.7575 72.2146 91.0067 72.3962 91.3114C72.5777 91.6161 72.6685 91.9901 72.6685 92.4332C72.6685 92.9441 72.5347 93.4058 72.2669 93.8182C72.0022 94.2306 71.6144 94.5584 71.1035 94.8015C70.5957 95.0446 69.9787 95.1662 69.2523 95.1662C68.5753 95.1662 67.989 95.0569 67.4935 94.8384C67.001 94.6199 66.6133 94.3152 66.3301 93.9244C66.05 93.5335 65.8915 93.0795 65.8546 92.5625H67.0364C67.0672 92.9195 67.1872 93.215 67.3965 93.4489C67.6089 93.6797 67.8766 93.852 68.1998 93.9659C68.526 94.0767 68.8769 94.1321 69.2523 94.1321C69.6894 94.1321 70.0818 94.0613 70.4295 93.9197C70.7773 93.7751 71.0528 93.575 71.2559 93.3196C71.459 93.0611 71.5606 92.7595 71.5606 92.4148C71.5606 92.1009 71.4729 91.8454 71.2974 91.6484C71.122 91.4515 70.8912 91.2914 70.605 91.1683C70.3187 91.0452 70.0094 90.9375 69.6771 90.8452L68.5137 90.5128C67.7751 90.3004 67.1903 89.9973 66.7594 89.6033C66.3286 89.2094 66.1131 88.6939 66.1131 88.0568C66.1131 87.5275 66.2562 87.0658 66.5425 86.6719C66.8318 86.2749 67.2195 85.9671 67.7058 85.7486C68.1952 85.527 68.7414 85.4162 69.3447 85.4162C69.954 85.4162 70.4957 85.5254 70.9697 85.744C71.4436 85.9594 71.8191 86.2549 72.0961 86.6303C72.3762 87.0058 72.5239 87.4321 72.5393 87.9091H71.4313ZM74.8139 86.5611V85.5455H81.9048V86.5611H78.9318V95H77.7869V86.5611H74.8139ZM90.6563 85.5455H91.8012V91.8054C91.8012 92.4517 91.6488 93.0288 91.3441 93.5366C91.0425 94.0413 90.6163 94.4399 90.0654 94.7322C89.5145 95.0215 88.8682 95.1662 88.1264 95.1662C87.3847 95.1662 86.7384 95.0215 86.1875 94.7322C85.6366 94.4399 85.2088 94.0413 84.9041 93.5366C84.6025 93.0288 84.4517 92.4517 84.4517 91.8054V85.5455H85.5966V91.7131C85.5966 92.1747 85.6982 92.5856 85.9013 92.9457C86.1044 93.3027 86.3937 93.5843 86.7692 93.7905C87.1477 93.9936 87.6002 94.0952 88.1264 94.0952C88.6527 94.0952 89.1051 93.9936 89.4837 93.7905C89.8622 93.5843 90.1515 93.3027 90.3516 92.9457C90.5547 92.5856 90.6563 92.1747 90.6563 91.7131V85.5455ZM97.7851 95H94.8675V85.5455H97.9143C98.8315 85.5455 99.6163 85.7347 100.269 86.1133C100.921 86.4888 101.421 87.0289 101.769 87.7337C102.117 88.4354 102.291 89.2756 102.291 90.2543C102.291 91.2391 102.115 92.087 101.764 92.7979C101.414 93.5058 100.903 94.0505 100.232 94.4322C99.5609 94.8107 98.7453 95 97.7851 95ZM96.0124 93.9844H97.7112C98.4929 93.9844 99.1408 93.8336 99.6548 93.532C100.169 93.2304 100.552 92.801 100.804 92.244C101.057 91.6869 101.183 91.0237 101.183 90.2543C101.183 89.491 101.058 88.8339 100.809 88.283C100.56 87.729 100.187 87.3043 99.6917 87.0089C99.1962 86.7103 98.5791 86.5611 97.8405 86.5611H96.0124V93.9844ZM106.136 85.5455V95H104.991V85.5455H106.136ZM117.189 90.2727C117.189 91.2699 117.009 92.1316 116.649 92.858C116.289 93.5843 115.795 94.1444 115.167 94.5384C114.539 94.9323 113.822 95.1293 113.016 95.1293C112.209 95.1293 111.492 94.9323 110.864 94.5384C110.237 94.1444 109.743 93.5843 109.382 92.858C109.022 92.1316 108.842 91.2699 108.842 90.2727C108.842 89.2756 109.022 88.4138 109.382 87.6875C109.743 86.9612 110.237 86.401 110.864 86.0071C111.492 85.6132 112.209 85.4162 113.016 85.4162C113.822 85.4162 114.539 85.6132 115.167 86.0071C115.795 86.401 116.289 86.9612 116.649 87.6875C117.009 88.4138 117.189 89.2756 117.189 90.2727ZM116.081 90.2727C116.081 89.4541 115.944 88.7631 115.67 88.1999C115.399 87.6367 115.031 87.2105 114.567 86.9212C114.105 86.6319 113.588 86.4872 113.016 86.4872C112.443 86.4872 111.925 86.6319 111.46 86.9212C110.998 87.2105 110.63 87.6367 110.357 88.1999C110.086 88.7631 109.95 89.4541 109.95 90.2727C109.95 91.0914 110.086 91.7823 110.357 92.3455C110.63 92.9087 110.998 93.335 111.46 93.6243C111.925 93.9136 112.443 94.0582 113.016 94.0582C113.588 94.0582 114.105 93.9136 114.567 93.6243C115.031 93.335 115.399 92.9087 115.67 92.3455C115.944 91.7823 116.081 91.0914 116.081 90.2727Z" fill="white"/>
</svg>
